<?xml version="1.0" encoding="UTF-8" standalone="no"?>
<!-- Created with Inkscape (http://www.inkscape.org/) -->
<svg
   xmlns:dc="http://purl.org/dc/elements/1.1/"
   xmlns:cc="http://creativecommons.org/ns#"
   xmlns:rdf="http://www.w3.org/1999/02/22-rdf-syntax-ns#"
   xmlns:svg="http://www.w3.org/2000/svg"
   xmlns="http://www.w3.org/2000/svg"
   xmlns:sodipodi="http://sodipodi.sourceforge.net/DTD/sodipodi-0.dtd"
   xmlns:inkscape="http://www.inkscape.org/namespaces/inkscape"
   id="svg2403"
   sodipodi:version="0.32"
   inkscape:version="0.46"
   width="765"
   height="990"
   xml:space="preserve"
   sodipodi:docname="Crossbones_(PSF).svg"
   inkscape:output_extension="org.inkscape.output.svg.inkscape"><metadata
     id="metadata2408"><rdf:RDF><cc:Work
         rdf:about=""><dc:format>image/svg+xml</dc:format><dc:type
           rdf:resource="http://purl.org/dc/dcmitype/StillImage" /></cc:Work></rdf:RDF></metadata><defs
     id="defs2406"><inkscape:perspective
       sodipodi:type="inkscape:persp3d"
       inkscape:vp_x="0 : 526.18109 : 1"
       inkscape:vp_y="0 : 1000 : 0"
       inkscape:vp_z="744.09448 : 526.18109 : 1"
       inkscape:persp3d-origin="372.04724 : 350.78739 : 1"
       id="perspective2410" /></defs><sodipodi:namedview
     inkscape:window-height="1028"
     inkscape:window-width="1920"
     inkscape:pageshadow="2"
     inkscape:pageopacity="0.0"
     guidetolerance="10.0"
     gridtolerance="10.0"
     objecttolerance="10.0"
     borderopacity="1.0"
     bordercolor="#666666"
     pagecolor="#ffffff"
     id="base"
     showgrid="false"
     inkscape:zoom="0.47070707"
     inkscape:cx="382.5"
     inkscape:cy="495"
     inkscape:window-x="0"
     inkscape:window-y="26"
     inkscape:current-layer="g2412" /><g
     id="g2412"
     inkscape:groupmode="layer"
     inkscape:label="Crossbones_(PSF)"
     transform="matrix(1.25,0,0,-1.25,0,990)"><path
       d="M 515.5781,165.5008 C 509.8456,168.7136 506.6328,174.1946 502.2862,178.9821 C 468.3934,209.7876 419.9485,226.2934 379.0003,244.7515 C 349.3913,259.115 322.806,278.329 289.6696,278.329 C 288.4102,278.077 287.1502,277.825 285.8902,277.5101 C 230.9564,253.4451 172.0539,234.1046 119.5143,205.1887 C 98.6621,189.3138 80.519,154.9803 53.7452,184.0221 C 45.1142,199.2674 11.6629,234.2307 39.2556,246.0118 C 45.0516,246.0118 29.1762,235.8689 38.4996,227.1124 C 41.2716,227.1124 44.3582,231.711 47.2564,233.4115 C 59.288,233.4115 44.1694,245.1294 55.3198,245.1294 C 71.8254,241.2235 86.1885,243.9326 103.1349,244.0585 C 101.1821,234.294 67.5414,242.6094 62.564,235.6166 C 62.564,227.427 77.3691,234.5462 71.8883,226.0412 C 71.8883,204.37 127.3887,231.3329 133.3108,232.9707 C 151.1388,234.5462 165.8801,246.0118 182.8896,248.9091 C 190.1971,251.3662 242.2329,265.4773 226.5469,277.069 C 210.9231,277.069 191.772,267.1784 177.9126,260.2488 C 169.2193,253.0672 158.9505,256.1542 147.2329,255.5867 C 142.1303,251.4923 109.2458,240.2155 104.9621,244.4998 C 118.6325,254.264 141.8153,254.831 158.1313,262.3904 C 165.7545,264.7845 173.3771,264.7216 178.9838,269.8875 C 195.1741,277.825 211.8685,285.5106 228.2477,293.5114 C 232.9722,298.2359 224.0898,308.6308 219.8687,311.5284 C 189.1264,324.9473 158.3836,339.3108 127.4519,352.2249 C 122.0967,352.2249 118.0653,349.7049 112.7735,349.7049 C 99.1029,357.2016 90.2832,363.8798 74.9752,355.9416 C 66.9745,348.6342 82.6608,339.6254 69.6832,329.1678 C 47.4454,316.6946 17.1437,338.3025 24.6404,363.3126 C 34.2159,361.4221 34.0268,337.4833 49.335,345.9251 C 59.0998,344.7281 50.0913,352.4139 47.0676,357.0126 C 43.4767,365.0131 42.4052,372.0691 44.1065,380.6368 C 43.1617,388.0071 34.594,385.3616 34.9089,388.7002 C 49.2092,395.8189 63.0686,380.1328 72.2665,399.9138 C 73.5894,406.5917 90.9765,434.9404 93.9373,417.1119 C 90.2832,415.4743 88.9605,415.0332 86.9445,411.6314 C 83.9208,401.0479 71.3214,398.7802 78.1251,386.4954 C 77.6208,377.5499 52.4852,393.6141 52.4852,370.1163 C 57.5249,360.9816 77.495,370.6832 80.6448,376.416 C 80.6448,388.0704 87.8899,380.6368 94.3781,377.4237 C 107.3557,375.7856 112.5215,380.6368 123.2943,370.7461 C 146.0361,358.0209 166.7622,344.7916 192.528,341.3262 C 201.852,344.7916 172.4318,365.9581 169.3454,367.8486 C 160.0846,378.8093 184.2755,362.8712 188.5592,367.1552 C 187.5515,379.3139 183.7086,388.5114 175.5187,397.3938 C 167.2662,411.3797 182.2598,415.6002 182.2598,430.0894 C 168.6521,466.376 156.0529,507.2615 168.4003,545.6897 C 169.4707,567.8016 209.8525,609.2538 233.3506,609.2538 C 242.9892,603.9624 242.8631,614.0418 250.9268,618.0735 C 287.2763,626.5157 337.1703,624.6882 373.6454,614.2938 C 425.9962,586.9531 448.4863,536.5551 442.2495,478.7872 C 439.6666,464.9905 442.5647,456.3595 438.4698,443.13 C 434.6269,434.0582 430.9101,425.1762 427.9496,415.7892 C 427.9496,387.3144 430.973,390.2125 413.3341,369.6752 C 408.2312,352.9809 447.4783,379.6285 453.9671,384.3533 C 464.9919,400.2917 466.8185,403.4412 486.5366,402.6226 C 490.7574,403.9458 495.6083,406.4029 500.0182,405.7727 C 494.7894,381.1405 467.1337,404.4498 466.1254,380.0066 C 464.5502,378.4317 461.4639,378.0536 459.322,377.4237 C 432.2959,363.6272 403.5067,350.587 374.9054,340.5073 C 366.4003,336.1606 353.8641,320.2223 373.5825,322.8681 C 401.3646,331.1209 427.7602,344.7281 453.4002,358.1461 C 455.2277,359.6584 464.4876,364.7614 463.7942,366.5883 C 455.7937,371.9435 473.5596,368.2261 475.1972,368.2261 C 479.2921,371.0611 481.686,372.6989 484.2686,376.8568 C 486.2849,397.5829 493.7814,382.5896 505.436,392.6061 C 510.4757,399.221 517.5317,398.9058 519.3581,406.5917 C 531.2648,407.4735 518.6653,399.7244 518.6653,395.3151 C 523.6424,388.3221 534.3517,384.1645 542.7933,384.1645 C 576.434,399.221 596.5302,348.2558 578.2609,325.3873 C 565.3463,316.8201 549.4711,317.1353 543.0453,333.0737 C 534.4146,369.8011 510.7907,360.1627 482.442,350.587 C 442.9423,335.7831 399.6006,323.1201 362.6836,302.6458 C 348.8241,291.5583 386.1187,283.5578 390.6547,275.9981 C 381.5201,275.1163 359.0929,286.3928 353.1713,280.4712 C 330.1773,280.0928 342.6511,275.1789 354.5575,268.0605 C 355.6911,266.6115 356.8884,265.163 358.0849,263.6507 C 402.8136,241.6017 447.5412,224.907 491.2608,202.2917 C 506.192,197.4404 513.1219,190.0069 513.6885,208.5287 C 517.5944,211.1737 530.2568,219.3007 521.3747,222.4502 C 511.3576,222.4502 457.3689,236.247 455.1009,246.1374 C 462.4087,246.1374 473.4334,239.838 479.4812,237.5697 C 496.0494,229.3172 511.8616,229.191 529.8789,228.75 C 535.4853,227.994 550.6682,222.891 553.1247,217.2214 C 553.1247,202.4172 540.7775,229.506 537.9426,219.5524 C 544.9351,210.2289 553.8807,212.7487 546.0063,197.8189 C 542.7303,182.1319 533.8477,188.6207 543.4234,200.0237 C 547.1402,208.9689 543.4863,214.5129 531.9578,214.5129 C 512.8067,207.8351 547.014,200.0237 525.6578,196.8735 C 519.5472,193.4714 526.036,182.5098 532.7138,183.3922 C 545.4391,189.125 529.1229,168.0205 522.7603,165.7528 C 520.3661,165.6899 517.9723,165.6266 515.5781,165.5008"
       style="fill:#000000;fill-opacity:1;fill-rule:evenodd;stroke:none"
       id="path2414" /><path
       d="M 61.1787,194.1018 C 48.3902,204.3071 79.5112,222.0097 78.503,200.6532 C 74.2822,197.1884 66.5331,196.1175 61.1787,194.1018"
       style="fill:#ffffff;fill-opacity:1;fill-rule:evenodd;stroke:none"
       id="path2416" /><path
       d="M 51.0993,204.9999 C 43.2873,209.7876 33.7751,221.6945 50.5327,216.9068 C 46.5633,239.5225 74.156,221.1273 58.659,214.5129 C 46.7521,214.5129 55.194,213.8828 54.5638,205.6932 C 54.0598,205.2522 54.0598,205.2522 51.0993,204.9999"
       style="fill:#ffffff;fill-opacity:1;fill-rule:evenodd;stroke:none"
       id="path2418" /><path
       d="M 304.3483,284.8175 C 292.8824,293.0706 312.0341,299.9999 312.0341,288.5349 C 310.3957,284.8175 308.0021,285.0698 304.3483,284.8175"
       style="fill:#ffffff;fill-opacity:1;fill-rule:evenodd;stroke:none"
       id="path2420" /><path
       d="M 319.0269,286.4557 C 307.7504,292.566 328.6653,297.4802 312.4752,302.3308 C 301.0725,297.2282 305.4192,302.8351 297.4187,306.0476 C 285.0712,296.409 278.4566,303.906 276.3777,316.6946 C 269.4481,329.2937 286.2051,328.7268 293.324,332.5071 C 300.1277,332.5071 309.7032,316.4426 310.0184,332.4438 C 314.5541,335.9718 315.4989,330.2388 318.0186,332.0028 C 324.7597,341.3262 331.0591,322.8049 330.5557,332.2548 C 326.3346,344.2873 329.7994,344.2243 335.973,354.1779 C 335.973,369.2971 316.381,331.1209 315.436,341.1374 C 315.7512,341.5782 316.0658,342.0822 316.4437,342.5865 C 331.3743,351.5318 298.9307,388.1333 319.7197,393.2991 C 320.3495,402.1189 307.1835,421.6479 315.1843,427.8214 C 328.8543,427.8214 318.0186,408.2924 324.0037,399.3469 C 329.1063,394.8738 345.0447,383.7234 351.7223,383.7234 C 367.6606,387.6925 387.6307,385.2984 390.5918,405.3949 C 392.2296,409.9306 393.8046,427.4436 401.1123,423.4751 C 403.4429,417.3009 402.3723,392.4173 412.6408,396.3231 C 435.1309,413.1431 402.4981,342.6491 382.5907,353.2329 C 382.5907,359.1544 397.3955,366.5251 384.1659,366.5251 C 374.0233,358.2726 385.5515,354.4296 374.4646,348.8859 C 354.3049,344.6022 350.7775,335.4046 349.8321,315.4343 C 347.6276,307.7487 332.5711,303.2762 325.5157,304.41 C 319.5941,301.7639 319.5306,292.566 326.5234,293.5114 C 334.902,303.465 335.4063,285.8255 328.6653,288.9754 C 327.5314,293.7005 322.5546,287.3375 319.0269,286.4557"
       style="fill:#ffffff;fill-opacity:1;fill-rule:evenodd;stroke:none"
       id="path2422" /><path
       d="M 277.4483,287.3375 C 271.4638,291.621 276.5038,294.0151 280.9766,290.2986 C 280.9766,287.5898 279.7163,287.8415 277.4483,287.3375"
       style="fill:#ffffff;fill-opacity:1;fill-rule:evenodd;stroke:none"
       id="path2424" /><path
       d="M 265.29,288.5975 C 261.0062,291.9991 263.1481,293.0706 266.8649,295.5271 C 271.086,295.338 268.4395,289.4794 265.29,288.5975"
       style="fill:#ffffff;fill-opacity:1;fill-rule:evenodd;stroke:none"
       id="path2426" /><path
       d="M 289.2291,289.4165 C 282.8662,298.1733 300.5053,300.4413 293.0088,290.1095 C 292.1899,289.6688 292.1899,289.6688 289.2291,289.4165"
       style="fill:#ffffff;fill-opacity:1;fill-rule:evenodd;stroke:none"
       id="path2428" /><path
       d="M 340.4458,289.8575 C 333.642,292.8813 340.2564,298.4882 345.4228,298.4882 C 357.7073,307.5599 345.3599,292.5034 340.4458,289.8575"
       style="fill:#ffffff;fill-opacity:1;fill-rule:evenodd;stroke:none"
       id="path2430" /><path
       d="M 252.6908,293.1959 C 243.8079,297.1653 259.7462,305.2916 260.3764,294.3303 C 257.8564,293.9522 255.2732,293.5743 252.6908,293.1959"
       style="fill:#ffffff;fill-opacity:1;fill-rule:evenodd;stroke:none"
       id="path2432" /><path
       d="M 571.4569,330.1758 C 567.5516,335.4046 566.102,333.8926 566.5433,341.515 C 561.7556,348.3819 534.0997,394.8738 562.6375,382.0856 C 575.8038,369.9901 587.8369,347.2481 574.4806,330.8686 C 573.4732,330.6798 572.4649,330.4281 571.4569,330.1758"
       style="fill:#ffffff;fill-opacity:1;fill-rule:evenodd;stroke:none"
       id="path2434" /><path
       d="M 342.1468,357.4534 C 341.265,363.5643 335.0911,367.344 341.6428,371.1869 C 350.4626,381.9594 350.2106,373.392 349.7066,364.1944 C 341.8948,363.6272 348.8876,359.6584 342.1468,357.4534"
       style="fill:#000000;fill-opacity:1;fill-rule:evenodd;stroke:none"
       id="path2436" /><path
       d="M 349.2655,360.4144 C 349.4546,362.1155 349.4546,362.4304 350.9666,362.9344 C 350.9666,360.9187 351.2186,361.1704 349.2655,360.4144"
       style="fill:#000000;fill-opacity:1;fill-rule:evenodd;stroke:none"
       id="path2438" /><path
       d="M 535.7378,365.0131 C 524.713,370.2421 517.1533,375.7856 504.1757,374.904 C 496.8686,379.4397 507.704,384.6056 510.3496,387.8816 C 520.6184,392.4173 550.7311,369.9901 535.7378,365.0131"
       style="fill:#ffffff;fill-opacity:1;fill-rule:evenodd;stroke:none"
       id="path2440" /><path
       d="M 25.0183,366.7139 C 21.2383,371.628 25.3964,383.0936 30.9399,383.4711 C 30.9399,376.7315 29.6167,371.628 25.0183,366.7139"
       style="fill:#000000;fill-opacity:1;fill-rule:evenodd;stroke:none"
       id="path2442" /><path
       d="M 333.7058,369.612 C 329.0434,373.0774 336.0994,375.2189 335.5322,370.368 C 334.965,370.1163 334.3351,369.864 333.7058,369.612"
       style="fill:#000000;fill-opacity:1;fill-rule:evenodd;stroke:none"
       id="path2444" /><path
       d="M 400.4824,371.7539 C 397.7104,373.14 407.7901,392.3544 407.7901,382.2117 C 405.5854,377.2346 405.1443,374.0851 400.4824,371.7539"
       style="fill:#000000;fill-opacity:1;fill-rule:evenodd;stroke:none"
       id="path2446" /><path
       d="M 156.494,375.0931 C 148.2409,377.8021 117.8768,389.8973 118.5066,396.2602 C 125.6882,399.4727 157.3756,381.3296 159.8326,375.0931 C 158.7614,375.0931 157.6276,375.0931 156.494,375.0931"
       style="fill:#000000;fill-opacity:1;fill-rule:evenodd;stroke:none"
       id="path2448" /><path
       d="M 249.7297,380.1328 C 237.6337,384.9834 211.9317,387.1882 213.3799,403.6306 C 211.6791,408.1671 208.5925,417.7423 216.2784,413.8997 C 219.6799,409.1749 223.0821,403.2527 224.9084,400.9847 C 232.9722,395.1264 264.1561,394.0551 264.1561,385.0464 C 259.5574,382.8416 254.7065,381.0779 249.7297,380.1328"
       style="fill:#ffffff;fill-opacity:1;fill-rule:evenodd;stroke:none"
       id="path2450" /><path
       d="M 350.9666,388.1333 C 346.8716,389.8344 345.8007,391.0314 343.3433,394.6221 C 337.1703,398.5911 328.4135,397.1418 328.9175,406.3394 C 332.0042,409.4263 335.973,401.2367 335.973,406.1506 C 330.3031,414.3402 327.4685,421.7737 333.5162,431.1604 C 338.8079,432.6727 334.7133,413.962 339.5639,408.1671 C 345.8636,404.5127 349.8951,406.0877 350.7146,398.2759 C 354.4313,392.921 373.7716,403.1898 366.5897,390.9053 C 362.0543,388.8893 355.9433,388.7629 350.9666,388.1333"
       style="fill:#ffffff;fill-opacity:1;fill-rule:evenodd;stroke:none"
       id="path2452" /><path
       d="M 100.6149,389.7703 C 90.2832,397.1418 94.6933,405.1426 106.6626,400.0397 C 106.6626,396.701 104.1429,390.4013 100.6149,389.7703"
       style="fill:#000000;fill-opacity:1;fill-rule:evenodd;stroke:none"
       id="path2454" /><path
       d="M 305.6085,400.2917 C 294.3944,406.8437 298.6787,415.7892 299.8755,428.5145 C 305.8603,449.871 313.4829,401.8663 305.6085,400.2917"
       style="fill:#ffffff;fill-opacity:1;fill-rule:evenodd;stroke:none"
       id="path2456" /><path
       d="M 413.9637,406.5917 C 405.2069,417.0489 408.8611,440.1686 415.3496,450.3118 C 415.3496,462.5331 418.4368,468.4547 429.2722,477.3373 C 439.1626,477.3373 424.6733,451.9497 423.3504,448.9889 C 422.6576,440.043 419.6965,433.1764 417.0506,424.6089 C 416.9877,423.4119 418.2474,407.4106 413.9637,406.5917"
       style="fill:#ffffff;fill-opacity:1;fill-rule:evenodd;stroke:none"
       id="path2458" /><path
       d="M 319.8458,434.7513 C 310.0184,442.815 308.9475,459.9502 322.2397,465.1163 C 322.5546,468.4547 304.9784,464.8637 298.6157,466.943 C 295.1507,464.8637 310.3957,434.1212 292.2528,446.9726 C 286.7091,459.0054 272.9755,475.1957 258.1716,470.2819 C 249.6039,470.2819 262.7076,463.9822 252.6276,463.9822 C 241.0362,466.943 236.1852,467.8251 225.4127,462.2811 C 217.2861,462.2811 236.9412,470.8488 237.6972,471.2899 C 237.6972,476.267 212.3722,472.1717 222.1999,483.9523 C 221.7589,494.221 223.3967,496.7408 212.8133,496.7408 C 208.2773,494.3466 214.1362,483.4483 207.4589,487.6061 C 200.592,508.7733 197.316,512.742 203.3634,534.0353 C 210.0413,534.0353 200.9699,514.821 221.5698,516.0813 C 222.1999,519.609 222.1999,519.609 223.0821,521.4353 C 233.4135,529.1844 227.5549,545.3748 231.3975,557.0291 C 231.3975,559.8643 223.9639,581.5981 231.7754,580.6534 C 235.4922,576.9366 234.8623,590.7328 234.8623,592.8117 C 246.3282,599.1117 242.1071,579.5195 252.2497,593.8826 C 258.9276,599.3631 259.5574,601.6941 268.566,601.6941 C 274.2358,604.025 284.2523,614.2309 289.9851,608.4978 C 292.2528,608.4978 293.387,610.0727 296.0328,610.0727 C 302.3325,603.2061 308.1285,619.0818 317.7666,610.9549 C 320.5383,610.9549 321.0426,614.6087 324.1922,614.2309 C 326.1455,612.2778 326.1455,612.2778 329.1063,610.5144 C 353.2343,606.6082 376.0396,603.7101 395.5686,588.2128 C 398.0883,584.1811 398.6555,581.6611 403.0651,580.7166 C 430.2802,558.1627 428.3901,535.2951 428.3901,503.6703 C 433.8709,488.929 437.3986,498.3786 424.7994,483.6373 C 420.5784,472.5496 412.3259,479.9203 417.1133,489.937 C 423.3504,495.6701 414.3419,507.45 420.0114,515.4508 C 420.0114,519.1676 418.3106,522.4439 418.3106,525.9084 C 423.8544,538.0041 409.8688,546.0046 413.2709,552.8083 C 413.2709,557.3441 401.6792,582.6061 398.0883,570.6366 C 400.9864,563.5811 403.2541,554.2571 407.4123,547.7686 C 407.4123,542.0358 410.7512,512.301 404.9552,512.301 C 403.4429,517.089 402.9392,534.35 398.7814,535.7361 C 398.7184,528.6804 400.5456,516.1442 397.2696,509.3402 C 386.1819,504.1746 387.4419,501.3391 383.8516,489.3701 C 385.2369,480.3616 392.2926,482.3144 392.2926,472.1088 C 389.3318,461.1472 400.8606,445.5865 387.4419,453.4614 C 381.3313,455.2257 366.5268,456.6115 363.062,462.7225 C 349.9588,467.888 338.493,461.9032 328.8543,453.5875 C 326.3975,447.5395 326.7125,435.5073 319.8458,434.7513"
       style="fill:#ffffff;fill-opacity:1;fill-rule:evenodd;stroke:none"
       id="path2460" /><path
       d="M 407.664,453.6505 C 407.0336,460.0763 409.6797,456.8632 409.428,453.9027 C 408.8611,453.8395 408.2939,453.7766 407.664,453.6505"
       style="fill:#ffffff;fill-opacity:1;fill-rule:evenodd;stroke:none"
       id="path2462" /><path
       d="M 378.2441,462.4699 C 373.3934,465.2422 383.1576,467.888 382.9691,463.1632 C 382.0241,462.7225 382.0241,462.7225 378.2441,462.4699"
       style="fill:#000000;fill-opacity:1;fill-rule:evenodd;stroke:none"
       id="path2464" /><path
       d="M 201.4109,541.8468 C 197.1899,554.6356 205.3797,549.3436 203.2376,542.5398 C 202.7336,542.0988 202.7336,542.0988 201.4109,541.8468"
       style="fill:#ffffff;fill-opacity:1;fill-rule:evenodd;stroke:none"
       id="path2466" /><path
       d="M 244.2487,601.0642 C 244.186,602.1986 244.1231,603.3322 243.9972,604.4664 C 247.0839,611.7106 252.6276,603.8362 244.2487,601.0642"
       style="fill:#ffffff;fill-opacity:1;fill-rule:evenodd;stroke:none"
       id="path2468" /></g></svg>